<?xml version="1.0" encoding="UTF-8"?>
<svg id="Layer_1" data-name="Layer 1" xmlns="http://www.w3.org/2000/svg" viewBox="0 0 1314.23 163.72">
  <defs>
    <style>
      .cls-1 {
        fill: #ebebeb;
        stroke-width: 0px;
      }
    </style>
  </defs>
  <path class="cls-1" d="m56.79,61.45L117.57.66c7.54,0,13.46,1.7,17.75,5.1,4.29,3.4,7.47,7.25,9.54,11.53,2.36,4.88,3.92,10.43,4.66,16.64l-23.52,23.51c3.25,0,6.06.7,8.43,2.11,2.36,1.41,4.4,3.29,6.1,5.66,1.7,2.37,3.11,5.07,4.22,8.1,1.11,3.03,1.96,6.1,2.55,9.21,1.63,7.4,2.36,15.75,2.22,25.07l-55.68,55.46c-3.25-2.51-7.18-4.73-11.76-6.66-3.85-1.63-8.58-3.14-14.2-4.55-5.62-1.4-12.2-2.11-19.74-2.11-6.95,0-13.28.7-18.97,2.11-5.69,1.41-10.61,2.92-14.75,4.55-4.88,1.92-9.24,4.14-13.09,6.66l-1.33-1.33,34.83-34.83c2.36-1.77,4.51-3.99,6.43-6.65,1.63-2.36,3.11-5.43,4.44-9.21,1.33-3.77,2-8.32,2-13.64l.22-13.75c0-3.4.44-6.47,1.33-9.21.89-2.73,1.92-5.06,3.11-6.99,1.33-2.22,2.81-4.21,4.44-5.99Zm-7.54-14.2l11.54-11.53c-.74.15-1.41.22-2,.22-1.48.3-2.74.44-3.77.44-2.81,0-5.69-.37-8.65-1.11-2.96-.74-5.81-1.52-8.54-2.33-2.74-.81-5.4-1.59-7.99-2.33-2.59-.74-4.92-1.11-6.99-1.11-2.81,0-5.51.37-8.1,1.11-2.59.74-4.92,1.48-6.99,2.22-2.22,1.04-4.36,2.22-6.43,3.55l-1.33-1.11L29.5,5.77c1.18-.89,2.59-1.78,4.21-2.66,1.33-.59,2.96-1.14,4.88-1.66,1.92-.52,4.14-.78,6.65-.78,2.96,0,5.88.37,8.76,1.11,2.88.74,5.73,1.52,8.54,2.33,2.81.81,5.47,1.59,7.99,2.33,2.51.74,4.8,1.11,6.88,1.11,2.81,0,5.47-.37,7.99-1.11,2.51-.74,4.8-1.55,6.88-2.44,2.51-.89,4.8-2,6.88-3.33l1.11,1.11-57.68,57.46c-1.77,1.77-3.33,4.07-4.66,6.88-1.18,2.52-2.26,5.62-3.22,9.32-.96,3.7-1.44,8.13-1.44,13.31v8.65c0,3.4-.44,6.43-1.33,9.1-.89,2.66-1.92,4.96-3.11,6.88-1.33,2.22-2.81,4.22-4.44,5.99L0,143.97v-33.94c0-3.4.48-6.47,1.44-9.21.96-2.74,2.03-5.06,3.22-6.99,1.33-2.22,2.81-4.22,4.44-5.99l21.3-21.52H0l19.3-19.08h29.95Zm-.66,74.54c2.51-.89,5.62-1.63,9.32-2.22,3.7-.59,7.99-.89,12.87-.89,2.96,0,5.73.15,8.32.44,2.59.3,5.14.66,7.65,1.11V37.27c-1.33,2.22-2.66,5.36-3.99,9.43-1.33,4.07-2,9.28-2,15.64v13.75c0,5.62-1.66,11.17-4.99,16.64-3.33,5.47-6.99,10.35-10.98,14.64-4.73,5.03-10.13,9.84-16.19,14.42Zm39.93-41.48l28.4-22.18c0-3.7-.41-6.88-1.22-9.54-.82-2.66-1.89-4.88-3.22-6.66-1.33-1.77-2.85-3.18-4.55-4.21-1.7-1.03-3.44-1.77-5.21-2.22-4.14-1.18-8.87-1.33-14.2-.44v45.25Zm0,40.15c7.1,1.63,13.05,3.7,17.86,6.21,4.8,2.52,8.39,4.73,10.76,6.65v-27.95c0-6.66-1.52-12.01-4.55-16.08-3.03-4.07-7.8-6.1-14.31-6.1-2.52,0-4.81.66-6.88,2-1.04.59-2,1.26-2.88,2v33.27Z"/>
  <path class="cls-1" d="m154.62,67.22l27.51-27.73c2.36.15,4.51,1.04,6.43,2.66,1.63,1.33,3.1,3.4,4.44,6.21,1.33,2.81,2,6.88,2,12.2v62.11c0,3.55.22,6.47.66,8.76.44,2.3,1.85,3.44,4.21,3.44.44,0,.96-.14,1.55-.44.15,0,.3-.07.44-.22l1.33,1.11-27.73,27.51c-2.37-.15-4.51-1.03-6.43-2.66-1.63-1.33-3.11-3.44-4.44-6.32-1.33-2.88-2-6.91-2-12.09v-61.89c0-3.55-.22-6.47-.66-8.76-.44-2.29-1.85-3.44-4.22-3.44-.3,0-.55.04-.78.11-.22.08-.48.11-.78.11-.15.15-.3.3-.44.44l-1.11-1.11Zm13.09-33.94c1.18,0,2.33-.18,3.44-.55,1.11-.37,2.03-.85,2.77-1.44,1.03-.44,2-1.03,2.88-1.77L204.31,1.77l-1.11-1.11c-1.19.89-2.44,1.7-3.77,2.44-1.19.74-2.55,1.37-4.11,1.89-1.55.52-3.22.78-4.99.78-1.33,0-2.59-.26-3.77-.78-1.19-.52-2.22-1.14-3.11-1.89-1.04-.74-1.92-1.55-2.66-2.44l-21.3,22.85c-.44,1.77-.44,3.4,0,4.88.29,1.19,1.07,2.29,2.33,3.33,1.25,1.04,3.22,1.55,5.88,1.55Z"/>
  <path class="cls-1" d="m212.29,161.72l51.24-51.02h-54.79l19.3-18.86h28.62l16.42-16.64c-2.66,0-6.32-.3-10.98-.89-4.66-.59-9.43-1.22-14.31-1.89-4.88-.67-9.39-1.26-13.53-1.77-4.14-.52-6.95-.78-8.43-.78-1.77,0-3.59.26-5.43.78-1.85.52-3.59,1.15-5.21,1.89-1.92.89-3.7,1.85-5.32,2.88l-1.11-1.33,31.28-31.5c.74-.59,1.7-1.11,2.88-1.55,2.07-1.03,4.58-1.55,7.54-1.55,2.07,0,5.32.3,9.76.89,4.44.59,9.06,1.22,13.87,1.89,4.8.66,9.28,1.3,13.42,1.89,4.14.59,6.95.89,8.43.89,1.92,0,3.81-.3,5.66-.89,1.85-.59,3.59-1.26,5.21-2,1.77-.74,3.47-1.63,5.1-2.66l1.11,1.33-51.24,51.02h54.79l-19.3,18.86h-28.62l-16.64,16.64c2.66,0,6.36.26,11.09.78,4.73.52,9.54,1.11,14.42,1.77,4.88.66,9.39,1.26,13.53,1.77,4.14.52,6.95.78,8.43.78,1.92,0,3.77-.26,5.54-.78,1.78-.52,3.47-1.14,5.1-1.89,1.77-.74,3.47-1.63,5.1-2.66l1.33,1.33-31.28,31.5c-.74.59-1.7,1.04-2.88,1.33-2.07,1.04-4.58,1.55-7.54,1.55-1.92,0-5.14-.29-9.65-.89-4.51-.59-9.21-1.22-14.09-1.89-4.88-.66-9.39-1.25-13.53-1.77-4.14-.52-6.95-.78-8.43-.78-1.77,0-3.59.26-5.43.78-1.85.52-3.59,1.15-5.21,1.89-1.77.74-3.48,1.63-5.1,2.66l-1.11-1.11Z"/>
  <path class="cls-1" d="m350.83,14.98c3.18,3.11,4.77,6.95,4.77,11.54s-1.59,8.24-4.77,11.42c-3.18,3.18-6.99,4.77-11.42,4.77s-8.25-1.59-11.43-4.77c-3.18-3.18-4.77-6.99-4.77-11.42s1.59-8.43,4.77-11.54c3.18-3.11,6.99-4.66,11.43-4.66s8.24,1.55,11.42,4.66Zm4.77,48.87h-32.39v98.76h32.39V63.84Z"/>
  <path class="cls-1" d="m489.81,163.72c-10.2,0-19.71-2.14-28.51-6.43-8.8-4.29-16.42-10.09-22.85-17.41-6.43-7.32-11.5-15.79-15.2-25.4-3.7-9.61-5.55-19.74-5.55-30.39,0-7.84.89-15.01,2.66-21.52,1.77-6.51,4.07-12.46,6.88-17.86,2.81-5.4,6.06-10.28,9.76-14.64,3.7-4.36,7.39-8.17,11.09-11.42,8.87-7.69,19-13.9,30.39-18.63l1.11,1.11c-8.43,5.62-15.9,11.98-22.41,19.08-2.81,3.11-5.55,6.47-8.21,10.09-2.66,3.63-5.03,7.54-7.1,11.76-2.07,4.22-3.77,8.73-5.1,13.53-1.33,4.81-2,9.8-2,14.97,0,11.98,2.18,21.85,6.54,29.61,4.36,7.76,9.72,13.98,16.08,18.63,6.36,4.66,13.12,7.91,20.3,9.76,7.17,1.85,13.49,2.77,18.97,2.77h.89c-.74-3.4-2.55-6.28-5.43-8.65-2.88-2.36-6.21-4.66-9.98-6.88-3.77-2.22-7.77-4.51-11.98-6.88-4.22-2.36-8.1-5.25-11.65-8.65-3.55-3.4-6.47-7.54-8.76-12.42-2.29-4.88-3.44-10.94-3.44-18.19,0-4.58.63-9.02,1.89-13.31,1.25-4.29,2.92-8.35,4.99-12.2,2.07-3.84,4.44-7.5,7.1-10.98,2.66-3.47,5.4-6.62,8.21-9.43,6.51-6.8,13.9-13.01,22.18-18.63,1.33-.89,2.81-1.78,4.44-2.66,1.48-.59,3.18-1.14,5.1-1.66,1.92-.52,3.99-.78,6.21-.78,2.81,0,5.47.37,7.99,1.11,2.51.74,5.03,1.52,7.54,2.33,2.51.82,5.06,1.59,7.65,2.33,2.59.74,5.36,1.11,8.32,1.11,2.66,0,5.36-.37,8.1-1.11,2.73-.74,5.21-1.55,7.43-2.44,2.66-.89,5.17-2,7.54-3.33l1.33,1.11-29.5,29.5c-1.18.89-2.59,1.7-4.21,2.44-1.33.74-2.96,1.37-4.88,1.89-1.92.52-4.14.78-6.65.78-2.22,0-4.44-.22-6.65-.66v10.42l15.31,15.31-15.31,15.53v53.91c9.61-1.63,17.64-4.47,24.07-8.54,6.43-4.07,11.57-8.24,15.42-12.53,4.58-4.88,8.21-10.28,10.87-16.2l1.33,1.33c-3.25,13.01-8.06,24.55-14.42,34.61-2.66,4.44-5.84,8.73-9.54,12.87-3.7,4.14-7.91,7.84-12.65,11.09-4.73,3.25-10.06,5.88-15.97,7.87-5.92,2-12.5,3-19.74,3Zm-26.84-118.46c0,4.73.96,8.65,2.88,11.76,1.92,3.1,4.33,6.03,7.21,8.76,2.88,2.74,5.99,5.66,9.32,8.76s6.47,7.03,9.43,11.76c2.96,4.73,5.47,10.69,7.54,17.86,2.07,7.17,3.25,16.16,3.55,26.95,1.03-.15,2-.26,2.88-.33.89-.07,1.85-.18,2.88-.33v-54.13l-15.53-15.53,15.53-15.31v-10.87c-4.14-1.03-8.21-2.25-12.2-3.66-3.99-1.4-8.13-2.11-12.42-2.11-2.96,0-5.73.48-8.32,1.44-2.59.96-4.81,2.22-6.66,3.77-1.85,1.55-3.33,3.33-4.44,5.32s-1.66,3.96-1.66,5.88Z"/>
  <path class="cls-1" d="m614.26,66.55c-1.19,0-2.3.22-3.33.67-1.04.44-1.92.89-2.66,1.33-1.04.74-1.92,1.48-2.66,2.22v51.91c0,3.55.18,6.47.55,8.76.37,2.3,1.74,3.44,4.1,3.44.44,0,.96-.14,1.55-.44.15,0,.3-.07.44-.22l1.33,1.11-27.51,27.51c-2.52-.15-4.66-1.03-6.43-2.66-1.63-1.33-3.14-3.44-4.55-6.32-1.41-2.88-2.11-6.91-2.11-12.09v-61.89c0-3.55-.19-6.47-.55-8.76-.37-2.29-1.81-3.44-4.33-3.44-.3,0-.55.04-.78.11-.22.08-.48.11-.78.11-.15.15-.3.3-.44.44l-1.11-1.11,27.51-27.73c2.51.3,4.73,1.26,6.65,2.88,1.63,1.48,3.11,3.81,4.44,6.99,1.33,3.18,2,7.73,2,13.64l14.86-15.08c1.63-1.63,3.4-3.03,5.32-4.22,1.63-1.18,3.58-2.18,5.88-2.99,2.29-.81,4.77-1.22,7.43-1.22,5.47,0,10.02,1.55,13.64,4.66,3.62,3.1,5.43,6.8,5.43,11.09l-31.5,31.5c0-6.8-1.3-11.87-3.88-15.19-2.59-3.33-5.43-4.99-8.54-4.99Z"/>
  <path class="cls-1" d="m692.56,39.49c4.44,0,8.24.52,11.42,1.55,3.18,1.04,5.91,2.41,8.21,4.1,2.29,1.7,4.14,3.66,5.55,5.88,1.4,2.22,2.55,4.44,3.44,6.66,2.07,5.32,2.96,11.39,2.66,18.19l-45.03,45.03c3.25,3.85,7.1,6.84,11.54,8.98,4.44,2.15,9.24,3.22,14.42,3.22,2.96,0,5.88-.41,8.76-1.22,2.88-.81,5.51-1.74,7.88-2.77,2.66-1.18,5.17-2.51,7.54-3.99l1.11,1.11-27.51,27.51c-1.77,1.63-3.77,3.11-5.99,4.44-1.77,1.19-3.88,2.26-6.32,3.22-2.44.96-4.99,1.44-7.65,1.44-4.14,0-8.21-1.07-12.2-3.22-3.99-2.14-7.54-5.29-10.65-9.43-3.11-4.14-5.62-9.28-7.54-15.42-1.92-6.14-2.88-13.27-2.88-21.41,0-6.21.7-11.98,2.11-17.3,1.4-5.32,2.92-9.98,4.55-13.98,1.77-4.58,3.92-8.72,6.43-12.42l30.17-30.17Zm-16.19,78.31c3.11-2.81,5.91-5.84,8.43-9.1,2.07-2.81,3.99-6.02,5.77-9.65,1.77-3.62,2.66-7.36,2.66-11.2,0-2.66-.37-5.18-1.11-7.54-.74-2.36-1.96-4.47-3.66-6.32-1.7-1.85-3.92-3.29-6.66-4.33-2.74-1.03-6.03-1.55-9.87-1.55-.74,1.33-1.33,3.03-1.77,5.1-.59,1.77-1.07,4.03-1.44,6.77-.37,2.74-.55,6.03-.55,9.87,0,5.47.74,10.54,2.22,15.19,1.48,4.66,3.47,8.91,5.99,12.76Z"/>
  <path class="cls-1" d="m732.72,160.83l41.48-53.91c-6.95-2.07-13.09-5.18-18.41-9.32-2.37-1.77-4.66-3.81-6.88-6.1-2.22-2.29-4.22-4.99-5.99-8.1-1.77-3.11-3.18-6.62-4.22-10.54-1.04-3.92-1.55-8.24-1.55-12.98,0-7.69,1.44-15.08,4.33-22.18,2.88-7.1,6.99-13.38,12.31-18.86,5.32-5.47,11.72-9.87,19.19-13.2,7.47-3.33,15.86-4.99,25.18-4.99,6.95,0,13.01.7,18.19,2.11,5.18,1.41,9.61,2.92,13.31,4.55,4.14,2.07,7.76,4.36,10.87,6.88l13.31-13.53c3.7,1.04,7.02,2.59,9.98,4.66,2.51,1.92,4.8,4.48,6.88,7.65,2.07,3.18,3.11,7.36,3.11,12.53v97.17c0,3.55.18,6.47.55,8.76.37,2.3,1.74,3.44,4.1,3.44.44,0,.96-.14,1.55-.44.15,0,.29-.07.44-.22l1.33,1.11-27.51,27.73c-2.52-.15-4.66-1.03-6.43-2.66-1.63-1.33-3.14-3.44-4.55-6.32-1.41-2.88-2.11-6.99-2.11-12.31v-8.65l-29.95,29.95c-2.07-2.51-4.66-4.73-7.76-6.66-2.52-1.63-5.77-3.14-9.76-4.55-3.99-1.4-8.73-2.11-14.2-2.11-7.1,0-13.31.7-18.64,2.11-5.32,1.41-9.84,2.92-13.53,4.55-4.44,1.92-8.21,4.14-11.31,6.66l-3.33-2.22Zm8.21-4.21l32.83-28.4c2.22-1.77,4.8-3.4,7.76-4.88,2.51-1.18,5.47-2.25,8.87-3.22,3.4-.96,7.24-1.44,11.54-1.44,5.62,0,10.54.74,14.75,2.22,4.21,1.48,7.73,3.11,10.54,4.88,3.4,2.22,6.29,4.66,8.65,7.32h.22v-25.29h-58.34l-36.83,48.8Zm5.55-95.17c0,7.99,1.63,14.57,4.88,19.74,3.25,5.18,6.8,9.39,10.65,12.65,4.44,3.55,9.54,6.36,15.31,8.43l19.96-26.84c-1.18-2.96-2.74-5.55-4.66-7.76-1.63-2.07-3.85-3.88-6.65-5.43-2.81-1.55-6.36-2.33-10.65-2.33-2.37,0-4.36.33-5.99,1-1.63.67-2.96,1.37-3.99,2.11-1.33,1.04-2.37,2.15-3.11,3.33l-1.33-.89c1.18-4.44,2.96-8.43,5.32-11.98,2.07-2.96,4.95-5.69,8.65-8.21,3.7-2.51,8.43-3.77,14.2-3.77,3.84,0,7.28.59,10.31,1.78,3.03,1.18,5.66,2.59,7.88,4.21,2.51,1.77,4.8,3.77,6.88,5.99l9.32-12.42c-2.07-3.55-4.81-6.73-8.21-9.54-2.96-2.36-6.84-4.51-11.65-6.43-4.81-1.92-10.76-2.88-17.86-2.88-4.29,0-8.73.81-13.31,2.44-4.59,1.63-8.8,4.03-12.64,7.21-3.85,3.18-7.03,7.25-9.54,12.2-2.52,4.96-3.77,10.76-3.77,17.41Zm89.62-30.39l-43.92,57.68h43.92V31.06Zm1.77,100.27l3.33-3.33V41.48c0-2.36-.15-4.44-.44-6.21-.3-1.63-.63-3.07-1-4.33-.37-1.25-1-1.89-1.89-1.89v102.27Z"/>
  <path class="cls-1" d="m927.93.66v39.26h20.85v17.97h-20.85v52.57c0,3.99.03,7.73.11,11.2.07,3.48.44,6.54,1.11,9.21.67,2.66,1.77,4.77,3.33,6.32,1.55,1.55,3.81,2.33,6.77,2.33,1.33,0,2.55-.18,3.66-.55,1.11-.37,2.11-.78,3-1.22,1.03-.59,2-1.18,2.88-1.78l4.44,16.64c-2.07,1.92-4.36,3.63-6.88,5.1-2.22,1.33-4.81,2.55-7.76,3.66-2.96,1.11-6.14,1.66-9.54,1.66s-7.29-.59-11.2-1.77c-3.92-1.18-7.54-3.36-10.87-6.54-3.33-3.18-6.07-7.54-8.21-13.09-2.15-5.55-3.22-12.61-3.22-21.19v-62.56h-9.32v-17.97h9.32V.66h32.39Z"/>
  <path class="cls-1" d="m955.88,67.22l27.51-27.73c2.36.15,4.51,1.04,6.43,2.66,1.63,1.33,3.11,3.4,4.44,6.21,1.33,2.81,2,6.88,2,12.2v62.11c0,3.55.22,6.47.66,8.76.44,2.3,1.85,3.44,4.22,3.44.44,0,.96-.14,1.55-.44.14,0,.29-.07.44-.22l1.33,1.11-27.73,27.51c-2.37-.15-4.51-1.03-6.43-2.66-1.63-1.33-3.11-3.44-4.44-6.32-1.33-2.88-2-6.91-2-12.09v-61.89c0-3.55-.22-6.47-.67-8.76-.44-2.29-1.85-3.44-4.22-3.44-.3,0-.55.04-.78.11-.22.08-.48.11-.78.11-.15.15-.3.3-.44.44l-1.11-1.11Zm13.09-33.94c1.18,0,2.33-.18,3.44-.55,1.11-.37,2.03-.85,2.77-1.44,1.03-.44,2-1.03,2.88-1.77l27.51-27.73-1.11-1.11c-1.19.89-2.44,1.7-3.77,2.44-1.18.74-2.55,1.37-4.1,1.89-1.55.52-3.22.78-4.99.78-1.33,0-2.59-.26-3.77-.78-1.18-.52-2.22-1.14-3.11-1.89-1.04-.74-1.92-1.55-2.66-2.44l-21.3,22.85c-.44,1.77-.44,3.4,0,4.88.3,1.19,1.07,2.29,2.33,3.33,1.26,1.04,3.22,1.55,5.88,1.55Z"/>
  <path class="cls-1" d="m1036.85,162.83l-26.84-122.9h32.39l12.65,92.95,12.64-92.95h32.39l-27.06,122.9h-36.16Z"/>
  <path class="cls-1" d="m1178.6,163.72c-10.2,0-19.67-2.14-28.4-6.43-8.73-4.29-16.3-10.09-22.74-17.41-6.43-7.32-11.5-15.79-15.2-25.4-3.7-9.61-5.55-19.74-5.55-30.39,0-7.84.85-15.01,2.55-21.52,1.7-6.51,3.99-12.46,6.88-17.86,2.88-5.4,6.13-10.28,9.76-14.64,3.62-4.36,7.36-8.17,11.2-11.42,8.87-7.69,18.93-13.9,30.17-18.63l1.33,1.11c-8.43,5.62-15.9,11.98-22.41,19.08-2.81,3.11-5.58,6.47-8.32,10.09-2.74,3.63-5.14,7.54-7.21,11.76-2.07,4.22-3.77,8.73-5.1,13.53-1.33,4.81-2,9.8-2,14.97,0,7.99,1.03,15.01,3.11,21.07,2.07,6.06,4.77,11.35,8.1,15.86,3.33,4.51,7.17,8.28,11.54,11.31,4.36,3.03,8.83,5.47,13.42,7.32,4.58,1.85,9.13,3.18,13.64,3.99,4.51.81,8.61,1.22,12.31,1.22h.66c-.74-3.4-2.55-6.28-5.43-8.65-2.88-2.36-6.21-4.66-9.98-6.88-3.77-2.22-7.76-4.51-11.98-6.88-4.22-2.36-8.1-5.25-11.65-8.65-3.55-3.4-6.47-7.54-8.76-12.42-2.29-4.88-3.44-10.94-3.44-18.19,0-4.58.63-9.02,1.89-13.31,1.25-4.29,2.92-8.35,4.99-12.2,2.07-3.84,4.44-7.5,7.1-10.98,2.66-3.47,5.4-6.62,8.21-9.43,6.51-6.8,13.9-13.01,22.18-18.63,1.33-.89,2.81-1.78,4.44-2.66,1.48-.59,3.14-1.14,4.99-1.66,1.85-.52,3.88-.78,6.1-.78,2.96,0,5.69.37,8.21,1.11,2.51.74,5.03,1.52,7.54,2.33,2.51.82,5.06,1.59,7.65,2.33,2.59.74,5.36,1.11,8.32,1.11,2.66,0,5.36-.37,8.1-1.11,2.73-.74,5.21-1.55,7.43-2.44,2.66-.89,5.18-2,7.54-3.33l1.11,1.11-29.5,29.5c-1.19.89-2.59,1.7-4.22,2.44-1.33.74-2.92,1.37-4.77,1.89-1.85.52-4.03.78-6.54.78-2.22,0-4.44-.22-6.66-.66v9.76h33.5l-19.08,19.08h-14.42v66.33c9.61-1.63,17.64-4.47,24.07-8.54,6.43-4.07,11.65-8.24,15.64-12.53,4.58-4.88,8.21-10.28,10.87-16.2l1.11,1.33c-3.25,13.01-8.06,24.55-14.42,34.61-2.66,4.44-5.81,8.73-9.43,12.87-3.63,4.14-7.84,7.84-12.64,11.09-4.81,3.25-10.17,5.88-16.08,7.87-5.92,2-12.5,3-19.74,3Zm-26.84-118.46c0,3.7.55,6.8,1.66,9.32,1.11,2.52,2.62,4.88,4.55,7.1l16.86-16.86h22.63v-10.2c-4.14-.89-8.21-2.07-12.2-3.55-3.99-1.48-8.14-2.22-12.42-2.22-3.11,0-5.92.48-8.43,1.44-2.52.96-4.73,2.22-6.65,3.77-1.92,1.55-3.4,3.33-4.44,5.32-1.04,2-1.55,3.96-1.55,5.88Zm8.21,18.63c2.81,2.81,5.99,5.77,9.54,8.87s6.91,7.06,10.09,11.87c3.18,4.81,5.91,10.91,8.21,18.3,2.29,7.4,3.51,16.79,3.66,28.17,2.22-.3,4.22-.52,5.99-.67V63.89h-37.49Z"/>
  <path class="cls-1" d="m1281.31,38.38c.44-.22,1.11,0,1.33.44.22.67.22,1.33-.22,1.55l-13.98,13.98c-1.11,1.11-2.66,1.77-4.44,1.77-3.33,0-6.43-2.88-6.43-6.43,0-2.66,1.77-5.32,4.66-6.21l19.08-5.1Zm-17.3-20.41c1.55,0,3.33.67,4.44,1.77l13.98,13.98c.44.22.44.89.22,1.33-.22.67-.89.89-1.33.67l-19.08-5.1c-3.33-.89-5.32-4.44-4.44-7.99.89-2.88,3.55-4.66,6.21-4.66Zm20.63,23.74c.22-.44.67-.89,1.33-.89.44,0,1.11.44,1.11.89l5.1,19.08c.89,3.33-1.11,6.88-4.66,7.76-.67.22-1.11.22-1.77.22-3.33,0-6.21-2.88-6.21-6.21,0-.67,0-1.11.22-1.77l4.88-19.08Zm1.55-36.38c3.33,0,6.21,2.88,6.21,6.43,0,.44,0,1.11-.22,1.55l-5.1,19.08c0,.44-.67.89-1.11.89-.66,0-1.11-.44-1.33-.89l-4.88-19.08c-.89-3.33,1.11-6.88,4.66-7.76.66-.22,1.11-.22,1.77-.22Zm4.44,33.05l18.86,5.1c3.55.89,5.55,4.44,4.44,7.99-.66,2.88-3.33,4.66-6.21,4.66-1.55,0-3.11-.67-4.44-1.77l-13.98-13.98c-.44-.22-.44-.89-.22-1.33.44-.66.89-.89,1.55-.66Zm12.65-18.64c1.11-1.11,2.88-1.77,4.44-1.77,1.77,0,3.33.67,4.66,2,1.33,1.11,1.77,2.66,1.77,4.44,0,2.66-1.77,5.32-4.66,6.21l-18.86,5.1c-.66.22-1.11,0-1.55-.44-.22-.66-.22-1.33.22-1.55l13.98-13.98Z"/>
</svg>