<?xml version="1.0" encoding="UTF-8"?>
<svg id="Layer_1" data-name="Layer 1" xmlns="http://www.w3.org/2000/svg" viewBox="0 0 147.88 165.61">
  <defs>
    <style>
      .cls-1 {
        fill: #E75A30;
        stroke-width: 0px;
      }
    </style>
  </defs>
  <path class="cls-1" d="m61.96,86.28c1.16-.58,2.9,0,3.48,1.16.58,1.73.58,3.47-.58,4.05l-36.48,36.48c-2.9,2.9-6.95,4.63-11.58,4.63-8.69,0-16.8-7.53-16.8-16.79,0-6.95,4.63-13.9,12.16-16.22l49.8-13.32ZM16.8,33.01c4.05,0,8.68,1.73,11.58,4.63l36.48,36.48c1.16.58,1.16,2.32.58,3.47-.58,1.74-2.32,2.32-3.48,1.74l-49.8-13.32C3.48,63.69-1.73,54.43.58,45.16c2.32-7.53,9.27-12.16,16.22-12.16Zm53.85,61.96c.58-1.16,1.74-2.32,3.47-2.32,1.16,0,2.9,1.16,2.9,2.32l13.32,49.8c2.32,8.69-2.9,17.95-12.16,20.27-1.73.58-2.9.58-4.63.58-8.69,0-16.22-7.53-16.22-16.22,0-1.74,0-2.9.58-4.63l12.74-49.8ZM74.7,0c8.68,0,16.22,7.53,16.22,16.79,0,1.16,0,2.9-.58,4.05l-13.32,49.8c0,1.16-1.74,2.32-2.9,2.32-1.73,0-2.9-1.16-3.47-2.32l-12.74-49.8c-2.32-8.69,2.89-17.95,12.16-20.27,1.74-.58,2.9-.58,4.63-.58Zm44.59,37.64c2.9-2.9,7.53-4.63,11.58-4.63,4.63,0,8.69,1.73,12.16,5.21,3.48,2.9,4.63,6.95,4.63,11.58,0,6.95-4.63,13.9-12.16,16.22l-49.22,13.32c-1.74.58-2.9,0-4.05-1.16-.58-1.74-.58-3.48.58-4.05l36.48-36.48Zm-33.01,48.64l49.22,13.32c9.27,2.32,14.48,11.58,11.58,20.85-1.74,7.53-8.68,12.16-16.22,12.16-4.05,0-8.11-1.73-11.58-4.63l-36.48-36.48c-1.16-.58-1.16-2.32-.58-3.48,1.16-1.74,2.32-2.32,4.05-1.74Z"/>
</svg>