<?xml version="1.0" encoding="UTF-8"?>
<svg id="Layer_1" data-name="Layer 1" xmlns="http://www.w3.org/2000/svg" viewBox="0 0 197.66 226.46">
  <defs>
    <style>
      .cls-1 {
        fill: #2c2c2c;
        stroke-width: 0px;
      }
    </style>
  </defs>
  <path class="cls-1" d="m83.6,0c-1.75,1.12-3.68,2.05-5.8,2.8-1.74.75-3.68,1.44-5.79,2.06-2.13.62-4.37.93-6.74.93-1.74,0-3.68-.31-5.8-.93-2.12-.62-4.36-1.28-6.73-1.96-2.37-.69-4.77-1.34-7.2-1.97-2.43-.62-4.89-.93-7.39-.93-2.12,0-3.99.22-5.61.65-1.62.44-2.99.91-4.11,1.4-1.38.75-2.56,1.5-3.55,2.25L0,29.17l1.12.94c1.75-1.12,3.56-2.12,5.43-2.99,1.74-.63,3.71-1.25,5.89-1.87,2.18-.63,4.45-.94,6.82-.94,1.75,0,3.71.31,5.9.94,2.18.62,4.42,1.27,6.73,1.96,2.3.69,4.7,1.34,7.2,1.96,2.49.63,4.92.94,7.29.94.87,0,1.93-.13,3.18-.38.5,0,1.06-.06,1.69-.18l-9.73,9.72h-25.25L0,55.36h25.62l-17.95,18.14c-1.37,1.49-2.62,3.18-3.74,5.05-1,1.62-1.9,3.58-2.71,5.89-.82,2.31-1.22,4.89-1.22,7.76v28.62l20.57-20.76c1.37-1.5,2.62-3.18,3.74-5.05,1-1.62,1.87-3.56,2.62-5.8.75-2.25,1.12-4.8,1.12-7.67v-7.29c0-4.37.41-8.11,1.22-11.23.81-3.11,1.71-5.73,2.71-7.85,1.12-2.37,2.43-4.3,3.93-5.8L84.54.93l-.94-.93Z"/>
  <path class="cls-1" d="m187.19,180.45c-3.24,3.62-7.57,7.14-13,10.57-5.42,3.43-12.19,5.83-20.29,7.2v-45.45l12.9-13.09-12.9-12.9v-8.79c1.87.37,3.74.56,5.61.56,2.12,0,3.99-.22,5.61-.66,1.62-.43,2.99-.96,4.12-1.59,1.37-.62,2.55-1.31,3.55-2.05l24.87-24.88-1.12-.93c-1.99,1.12-4.11,2.05-6.36,2.8-1.87.75-3.96,1.44-6.26,2.06-2.31.62-4.59.93-6.83.93-2.5,0-4.83-.31-7.01-.93-2.19-.62-4.34-1.28-6.46-1.97-2.12-.68-4.24-1.33-6.35-1.96-2.13-.62-4.37-.93-6.74-.93-1.87,0-3.62.21-5.23.65-1.63.44-3.06.91-4.31,1.4-1.37.75-2.61,1.5-3.74,2.25-6.98,4.74-13.21,9.97-18.7,15.71-2.37,2.37-4.67,5.02-6.92,7.95-2.24,2.93-4.24,6.01-5.98,9.25-1.75,3.25-3.15,6.68-4.21,10.29-1.06,3.62-1.59,7.36-1.59,11.22,0,6.11.96,11.22,2.9,15.34,1.93,4.11,4.39,7.6,7.39,10.47,2.99,2.87,6.26,5.3,9.81,7.3,3.56,1.99,6.92,3.92,10.1,5.79,3.18,1.87,5.99,3.81,8.42,5.8,2.43,2,3.96,4.43,4.58,7.3h-.75c-4.61,0-9.94-.78-15.99-2.34-6.05-1.56-11.75-4.3-17.11-8.23-5.36-3.93-9.88-9.17-13.56-15.71-3.68-6.55-5.52-14.87-5.52-24.97,0-4.36.56-8.57,1.69-12.62,1.12-4.05,2.55-7.86,4.3-11.41,1.71-3.49,3.66-6.73,5.85-9.74.04-.06.09-.12.13-.18,2.25-3.05,4.55-5.89,6.92-8.5,4-4.36,8.43-8.39,13.27-12.07,1.32-1.01,2.6-2.08,3.78-3.25h0c0-.44,0-.88,0-1.32.04-7.32-.59-13.92-1.88-19.81-.5-2.62-1.22-5.21-2.15-7.76-.94-2.56-2.13-4.83-3.56-6.83-1.43-1.99-3.15-3.58-5.14-4.77-2-1.18-4.37-1.77-7.11-1.77l19.83-19.83c-.63-5.24-1.94-9.91-3.93-14.03-1.75-3.61-4.43-6.85-8.04-9.72-3.62-2.87-8.61-4.3-14.97-4.3l-51.24,51.24c-1.37,1.5-2.62,3.18-3.74,5.05-1,1.62-1.87,3.59-2.62,5.89-.75,2.31-1.12,4.9-1.12,7.76l-.19,11.6c0,4.49-.56,8.32-1.68,11.5-1.12,3.18-2.37,5.77-3.74,7.76-1.62,2.25-3.43,4.12-5.43,5.61L0,135.78l1.12,1.12c3.24-2.12,6.92-3.99,11.04-5.61,3.49-1.37,7.63-2.65,12.43-3.83,4.8-1.19,10.13-1.78,16-1.78,6.35,0,11.9.59,16.64,1.78,4.74,1.18,8.73,2.46,11.97,3.83,3.86,1.62,7.17,3.49,9.91,5.61l.22-.22c-.49,1.46-.94,2.96-1.36,4.5-1.5,5.49-2.25,11.53-2.25,18.14,0,8.98,1.56,17.52,4.68,25.62,3.11,8.11,7.39,15.24,12.81,21.42,5.42,6.17,11.84,11.06,19.26,14.68,7.42,3.61,15.43,5.42,24.04,5.42,6.1,0,11.65-.84,16.64-2.52,4.99-1.69,9.48-3.9,13.47-6.64,3.99-2.74,7.54-5.86,10.66-9.35,3.11-3.49,5.8-7.11,8.04-10.85,5.36-8.48,9.41-18.2,12.16-29.18l-1.13-1.12c-2.24,4.99-5.3,9.54-9.16,13.65ZM74.62,28.99c4.49-.75,8.48-.63,11.97.37,1.5.37,2.96,1,4.4,1.87,1.43.87,2.71,2.06,3.83,3.55,1.13,1.5,2.03,3.37,2.72,5.61.68,2.25,1.02,4.93,1.02,8.05l-23.94,18.7V28.99Zm-1.49,71.81c-2.12-.37-4.27-.68-6.45-.93-2.19-.25-4.53-.38-7.02-.38-4.11,0-7.73.26-10.85.75-3.11.5-5.73,1.12-7.85,1.87,5.11-3.86,9.66-7.91,13.65-12.15,3.37-3.62,6.45-7.73,9.26-12.35,2.81-4.61,4.21-9.28,4.21-14.02v-11.6c0-5.36.56-9.75,1.68-13.19,1.12-3.42,2.25-6.07,3.37-7.94v69.94Zm1.49.19v-28.05c.75-.63,1.56-1.19,2.44-1.69,1.74-1.12,3.67-1.68,5.79-1.68,5.49,0,9.51,1.72,12.07,5.14,2.55,3.43,3.83,7.95,3.83,13.56v18.27c-1.03.99-2.05,2.03-3.08,3.12-1.66-1.07-3.65-2.21-5.99-3.43-4.05-2.12-9.07-3.87-15.06-5.24Zm77.78,25.79l-13.09,12.9,13.09,13.09v45.64c-.87.12-1.68.22-2.43.28s-1.56.16-2.43.28c-.25-9.1-1.25-16.68-2.99-22.73-1.75-6.04-3.87-11.06-6.36-15.05-2.5-3.99-5.14-7.3-7.95-9.91-2.81-2.62-5.42-5.08-7.85-7.39-2.44-2.31-4.46-4.77-6.08-7.39-1.63-2.62-2.43-5.92-2.43-9.91,0-1.62.46-3.27,1.4-4.96.93-1.68,2.18-3.18,3.74-4.49,1.56-1.3,3.43-2.36,5.61-3.18,2.18-.8,4.52-1.21,7.01-1.21,3.62,0,7.11.59,10.48,1.78,3.36,1.18,6.79,2.21,10.28,3.08v9.17Z"/>
  <path class="cls-1" d="m160.28,48.79c.37-.19.94,0,1.12.37.19.56.19,1.12-.19,1.31l-11.78,11.78c-.93.94-2.24,1.5-3.74,1.5-2.81,0-5.42-2.43-5.42-5.42,0-2.24,1.5-4.49,3.93-5.24l16.08-4.3Zm-14.59-17.21c1.31,0,2.81.56,3.74,1.5l11.78,11.78c.37.19.37.75.19,1.12-.19.56-.75.75-1.12.56l-16.08-4.3c-2.81-.75-4.49-3.74-3.74-6.73.75-2.43,2.99-3.93,5.24-3.93Zm17.39,20.01c.19-.37.56-.75,1.12-.75.37,0,.94.37.94.75l4.3,16.08c.75,2.81-.93,5.8-3.93,6.55-.56.19-.94.19-1.5.19-2.81,0-5.24-2.43-5.24-5.24,0-.56,0-.94.19-1.5l4.11-16.08Zm1.31-30.67c2.8,0,5.24,2.43,5.24,5.42,0,.37,0,.94-.19,1.31l-4.3,16.08c0,.37-.56.75-.94.75-.56,0-.94-.37-1.12-.75l-4.11-16.08c-.75-2.81.93-5.8,3.93-6.55.56-.19.94-.19,1.5-.19Zm14.4,12.16c.94-.94,2.43-1.5,3.74-1.5,1.5,0,2.8.56,3.93,1.68,1.12.94,1.5,2.24,1.5,3.74,0,2.24-1.5,4.49-3.93,5.24l-15.9,4.3c-.56.19-.94,0-1.31-.37-.19-.56-.19-1.12.19-1.31l11.78-11.78Zm-10.66,15.71l15.9,4.3c2.99.75,4.68,3.74,3.74,6.73-.56,2.43-2.81,3.93-5.24,3.93-1.31,0-2.62-.56-3.74-1.5l-11.78-11.78c-.37-.19-.37-.75-.19-1.12.37-.56.75-.75,1.31-.56Z"/>
</svg>